<?xml version="1.0" encoding="UTF-8"?>
<svg version="1.1" xmlns="http://www.w3.org/2000/svg" width="140" height="136">
<path d="M0 0 C4.09700327 1.32116057 6.0276964 2.79184567 8.5625 6.25 C9.15289062 7.04792969 9.74328125 7.84585937 10.3515625 8.66796875 C12.29211917 11.41325863 14.18566314 14.1696345 16 17 C15.51337706 14.37223611 14.88030399 12.82045598 13.375 10.5625 C12 8 12 8 12.3125 5.1875 C12.539375 4.465625 12.76625 3.74375 13 3 C20.8244228 5.45949041 24.48849745 13.09917384 28.1875 19.96875 C31.73243126 26.79205817 34.93019201 33.57304191 37 41 C37.3403125 42.2065625 37.3403125 42.2065625 37.6875 43.4375 C38.6597935 51.41030673 38.50418517 58.09182157 34 65 C29.79590517 69.75378278 25.26786674 72.71951853 18.80078125 73.14453125 C15.62120734 73.20234168 12.68720619 73.13986408 9.5625 72.50390625 C2.33681583 71.08300189 -3.52782943 71.45571612 -10 75 C-12.875 74.6875 -12.875 74.6875 -15 74 C-15.41421398 69.77501736 -15.53182404 67.70909872 -12.9375 64.25 C-9.73427072 61.79646268 -6.77022234 60.41383338 -3 59 C-1.5459375 58.4121875 -1.5459375 58.4121875 -0.0625 57.8125 C0.618125 57.544375 1.29875 57.27625 2 57 C-1.01441471 46.83015643 -7.57635145 38.24815906 -14.234375 30.1484375 C-19.88984509 23.26678141 -19.88984509 23.26678141 -20.25 19.125 C-20.1675 18.42375 -20.085 17.7225 -20 17 C-18.68 16.34 -17.36 15.68 -16 15 C-15.08476563 15.9384375 -14.16953125 16.876875 -13.2265625 17.84375 C-12.02630609 19.06276041 -10.82577081 20.28149629 -9.625 21.5 C-9.02171875 22.12003906 -8.4184375 22.74007812 -7.796875 23.37890625 C-7.21679688 23.96542969 -6.63671875 24.55195312 -6.0390625 25.15625 C-5.23782959 25.97319336 -5.23782959 25.97319336 -4.42041016 26.80664062 C-3.05397977 28.21441999 -3.05397977 28.21441999 -1 28 C-1.51949219 27.28714844 -2.03898437 26.57429688 -2.57421875 25.83984375 C-4.01530582 23.8606798 -5.45265327 21.87878882 -6.88671875 19.89453125 C-8.11732958 18.20898111 -9.36282845 16.53375252 -10.64453125 14.88671875 C-12.69950295 12.21584775 -13.95110268 10.45963481 -14.3125 7.0625 C-14.209375 6.381875 -14.10625 5.70125 -14 5 C-11.8125 4.1875 -11.8125 4.1875 -9 4 C-7.0133803 5.61077273 -5.62734732 7.05936657 -4 9 C-2.6073941 10.58617274 -1.21135932 12.16933946 0.1875 13.75 C1.19876953 14.91789062 1.19876953 14.91789062 2.23046875 16.109375 C3.86863988 18.07908003 3.86863988 18.07908003 6 19 C5.50628906 18.18015625 5.01257813 17.3603125 4.50390625 16.515625 C3.86324219 15.43796875 3.22257812 14.3603125 2.5625 13.25 C1.92441406 12.18265625 1.28632812 11.1153125 0.62890625 10.015625 C-1.78391214 5.5487286 -1.78391214 5.5487286 -2 3 C-1.34 2.01 -0.68 1.02 0 0 Z " fill="#039DDD" transform="translate(92,11)"/>
<path d="M0 0 C2.94392515 2.74491855 4.23139785 5.86050893 5.67578125 9.5625 C6.5279143 11.62584103 7.38219318 13.68829678 8.23828125 15.75 C8.82802734 17.22533203 8.82802734 17.22533203 9.4296875 18.73046875 C11.37829297 23.15911755 12.70599446 25.95400633 16.86328125 28.5625 C17.79140625 29.2225 18.71953125 29.8825 19.67578125 30.5625 C20.05078125 33.3125 20.05078125 33.3125 19.67578125 35.5625 C16.43223184 37.86001416 13.56675465 37.7734623 9.70703125 37.17578125 C5.10248613 35.78556282 2.29615884 32.49306638 -0.32421875 28.5625 C-2.38347014 27.83867533 -2.38347014 27.83867533 -4.32421875 27.5625 C-4.70126953 28.3359375 -4.70126953 28.3359375 -5.0859375 29.125 C-6.37231124 31.65716787 -7.72986504 34.14603097 -9.09082031 36.63867188 C-12.52476406 42.95507633 -15.56070425 49.26588735 -18.2265625 55.953125 C-19.65748268 59.35474308 -21.39609924 62.42037932 -23.32421875 65.5625 C-24.97421875 65.5625 -26.62421875 65.5625 -28.32421875 65.5625 C-29.28249379 62.51751389 -29.31853392 60.53976069 -28.546875 57.453125 C-28.36318359 56.69902344 -28.17949219 55.94492188 -27.99023438 55.16796875 C-27.79107422 54.39066406 -27.59191406 53.61335938 -27.38671875 52.8125 C-27.19142578 52.01972656 -26.99613281 51.22695312 -26.79492188 50.41015625 C-26.31297796 48.45887115 -25.81969787 46.51039217 -25.32421875 44.5625 C-28.16228637 47.94115193 -29.66806414 51.49111991 -31.32421875 55.5625 C-34.75279018 63.99107143 -34.75279018 63.99107143 -37.32421875 66.5625 C-38.64421875 66.5625 -39.96421875 66.5625 -41.32421875 66.5625 C-42.60785311 60.69775138 -41.87551853 56.85291114 -39.88671875 51.25 C-38.0652783 46.50741227 -38.0652783 46.50741227 -37.32421875 41.5625 C-37.9275 42.63371094 -38.53078125 43.70492187 -39.15234375 44.80859375 C-39.95896689 46.20611524 -40.76629543 47.60322975 -41.57421875 49 C-41.96996094 49.70705078 -42.36570312 50.41410156 -42.7734375 51.14257812 C-43.16660156 51.81611328 -43.55976562 52.48964844 -43.96484375 53.18359375 C-44.32094727 53.8067749 -44.67705078 54.42995605 -45.04394531 55.07202148 C-46.67360401 56.96925001 -47.87230606 57.27273418 -50.32421875 57.5625 C-51.32421875 56.5625 -51.32421875 56.5625 -51.63671875 54.0234375 C-51.2231885 49.44359 -49.47105567 46.19831357 -47.32421875 42.1875 C-46.94265625 41.45144531 -46.56109375 40.71539062 -46.16796875 39.95703125 C-45.2309014 38.1531766 -44.27902668 36.35702741 -43.32421875 34.5625 C-45.69680556 36.89452977 -47.96741915 39.23752271 -50.07421875 41.8125 C-51.18796875 43.17375 -51.18796875 43.17375 -52.32421875 44.5625 C-53.31421875 44.2325 -54.30421875 43.9025 -55.32421875 43.5625 C-54.26564124 28.03669655 -43.50117674 13.80635211 -32.5546875 3.40234375 C-22.9491478 -4.52096483 -10.82960417 -7.63931997 0 0 Z " fill="#D4DD27" transform="translate(60.32421875,17.4375)"/>
<path d="M0 0 C2.8125 -0.25 2.8125 -0.25 6 0 C8.42386068 2.32263216 8.96779065 3.69976284 9.328125 7.05859375 C9.30234375 8.17363281 9.2765625 9.28867188 9.25 10.4375 C9.23453125 11.54996094 9.2190625 12.66242188 9.203125 13.80859375 C9.02299301 16.63874445 8.63918668 19.24221877 8 22 C18.0411439 24.91605823 29.73305221 22.5249019 39.94335938 21.53515625 C41.05388672 21.43847656 42.16441406 21.34179688 43.30859375 21.2421875 C44.80604126 21.10079346 44.80604126 21.10079346 46.33374023 20.95654297 C49.15335734 21.00249955 50.62566459 21.53415195 53 23 C52.505 25.475 52.505 25.475 52 28 C50.86820312 28.34933594 49.73640625 28.69867188 48.5703125 29.05859375 C47.08851369 29.51813895 45.60674438 29.97777931 44.125 30.4375 C43.37863281 30.66759766 42.63226563 30.89769531 41.86328125 31.13476562 C37.84908399 32.35379647 37.84908399 32.35379647 34 34 C34.72703125 33.93941406 35.4540625 33.87882812 36.203125 33.81640625 C38.31606021 33.64032832 40.42937467 33.4687656 42.54296875 33.30078125 C44.81958917 33.10270241 47.09362263 32.8717121 49.36328125 32.60546875 C50.41902344 32.48816406 51.47476563 32.37085938 52.5625 32.25 C53.53316406 32.13140625 54.50382812 32.0128125 55.50390625 31.890625 C58 32 58 32 59.83984375 33.35546875 C61 35 61 35 61 37.0625 C59.55836134 39.8556749 57.95143709 39.99619145 55 41 C52.6351777 41.58450256 50.25889455 42.12392662 47.875 42.625 C46.65554687 42.88539062 45.43609375 43.14578125 44.1796875 43.4140625 C41 44 41 44 38 44 C38 44.66 38 45.32 38 46 C43.94 46 49.88 46 56 46 C56.495 48.475 56.495 48.475 57 51 C49.69209942 54.42557839 41.89657407 54.14563354 34 54 C34 54.66 34 55.32 34 56 C34.84304687 55.98839844 35.68609375 55.97679687 36.5546875 55.96484375 C37.65039062 55.95582031 38.74609375 55.94679687 39.875 55.9375 C41.51082031 55.92009766 41.51082031 55.92009766 43.1796875 55.90234375 C46 56 46 56 48 57 C47.875 58.875 47.875 58.875 47 61 C41.41353752 63.66244449 35.55313582 63.34488226 29.5 63.3125 C27.89294189 63.30512817 27.89294189 63.30512817 26.25341797 63.29760742 C13.69509859 63.11250748 0.20930446 61.79085395 -9.35546875 52.78125 C-14.82612486 46.81678245 -16.3798112 42.92815149 -16.2734375 34.84375 C-15.57664409 27.59709857 -11.33732525 23.12235081 -6.609375 17.9296875 C-2.33951855 12.81000525 -1.22871051 6.37483924 0 0 Z " fill="#F8A51C" transform="translate(48,66)"/>
<path d="M0 0 C4.09700327 1.32116057 6.0276964 2.79184567 8.5625 6.25 C9.15289062 7.04792969 9.74328125 7.84585937 10.3515625 8.66796875 C12.29211917 11.41325863 14.18566314 14.1696345 16 17 C15.51337706 14.37223611 14.88030399 12.82045598 13.375 10.5625 C12 8 12 8 12.3125 5.1875 C12.539375 4.465625 12.76625 3.74375 13 3 C17.67692308 4.47692308 17.67692308 4.47692308 19.3125 7.125 C19.6528125 8.053125 19.6528125 8.053125 20 9 C18.68 9 17.36 9 16 9 C16.495 11.475 16.495 11.475 17 14 C17.66 14 18.32 14 19 14 C19.495 16.97 19.495 16.97 20 20 C17.69 19.67 15.38 19.34 13 19 C13 17.68 13 16.36 13 15 C12.01 15 11.02 15 10 15 C9.34 13.35 8.68 11.7 8 10 C7.01 10 6.02 10 5 10 C5.55880859 11.01320313 5.55880859 11.01320313 6.12890625 12.046875 C6.60199219 12.93890625 7.07507813 13.8309375 7.5625 14.75 C8.03816406 15.63171875 8.51382813 16.5134375 9.00390625 17.421875 C10.07998186 20.20701188 10.06528748 21.26980214 9 24 C7.576875 23.690625 7.576875 23.690625 6.125 23.375 C4.578125 23.189375 4.578125 23.189375 3 23 C2.34 23.66 1.68 24.32 1 25 C1 23.02 1 21.04 1 19 C-0.32 19.33 -1.64 19.66 -3 20 C-2.6390625 20.53109375 -2.278125 21.0621875 -1.90625 21.609375 C-1.4421875 22.31578125 -0.978125 23.0221875 -0.5 23.75 C-0.0359375 24.44609375 0.428125 25.1421875 0.90625 25.859375 C2 28 2 28 2 32 C-0.64 32 -3.28 32 -6 32 C-6 31.34 -6 30.68 -6 30 C-6.99 30 -7.98 30 -9 30 C-7.9313255 33.30317572 -6.62835158 35.53436202 -4.3125 38.0625 C-3.549375 39.031875 -2.78625 40.00125 -2 41 C-2.35546875 43.18359375 -2.35546875 43.18359375 -3 45 C-4.89721196 42.48020165 -6.79251002 39.95896967 -8.6875 37.4375 C-9.21794922 36.73302734 -9.74839844 36.02855469 -10.29492188 35.30273438 C-11.86956136 33.20643519 -13.43555246 31.10391221 -15 29 C-15.74213745 28.01688843 -15.74213745 28.01688843 -16.49926758 27.01391602 C-19.96436632 22.3349566 -19.96436632 22.3349566 -20.3125 19.0625 C-20.209375 18.381875 -20.10625 17.70125 -20 17 C-18.68 16.34 -17.36 15.68 -16 15 C-15.08476563 15.9384375 -14.16953125 16.876875 -13.2265625 17.84375 C-12.02630609 19.06276041 -10.82577081 20.28149629 -9.625 21.5 C-9.02171875 22.12003906 -8.4184375 22.74007812 -7.796875 23.37890625 C-7.21679688 23.96542969 -6.63671875 24.55195312 -6.0390625 25.15625 C-5.23782959 25.97319336 -5.23782959 25.97319336 -4.42041016 26.80664062 C-3.05397977 28.21441999 -3.05397977 28.21441999 -1 28 C-1.51949219 27.28714844 -2.03898437 26.57429688 -2.57421875 25.83984375 C-4.01530582 23.8606798 -5.45265327 21.87878882 -6.88671875 19.89453125 C-8.11732958 18.20898111 -9.36282845 16.53375252 -10.64453125 14.88671875 C-12.69950295 12.21584775 -13.95110268 10.45963481 -14.3125 7.0625 C-14.209375 6.381875 -14.10625 5.70125 -14 5 C-11.8125 4.1875 -11.8125 4.1875 -9 4 C-7.0133803 5.61077273 -5.62734732 7.05936657 -4 9 C-2.6073941 10.58617274 -1.21135932 12.16933946 0.1875 13.75 C1.19876953 14.91789062 1.19876953 14.91789062 2.23046875 16.109375 C3.86863988 18.07908003 3.86863988 18.07908003 6 19 C5.50628906 18.18015625 5.01257813 17.3603125 4.50390625 16.515625 C3.86324219 15.43796875 3.22257812 14.3603125 2.5625 13.25 C1.92441406 12.18265625 1.28632812 11.1153125 0.62890625 10.015625 C-1.78391214 5.5487286 -1.78391214 5.5487286 -2 3 C-1.34 2.01 -0.68 1.02 0 0 Z " fill="#0F97CC" transform="translate(92,11)"/>
<path d="M0 0 C0.33 0.99 0.66 1.98 1 3 C0.05126676 4.73389179 -0.90613753 6.46478249 -1.94140625 8.1484375 C-3.3700915 10.64731871 -4.19405339 13.2463491 -5 16 C-5.66 16 -6.32 16 -7 16 C-7.25069913 18.37429296 -7.25069913 18.37429296 -7 21 C-6.505 21.45375 -6.01 21.9075 -5.5 22.375 C-4 24 -4 24 -3.70703125 26.26171875 C-3.74183594 27.06222656 -3.77664062 27.86273438 -3.8125 28.6875 C-3.83957031 29.49574219 -3.86664063 30.30398437 -3.89453125 31.13671875 C-3.92933594 31.75160156 -3.96414062 32.36648437 -4 33 C-3.34 33 -2.68 33 -2 33 C-2 32.34 -2 31.68 -2 31 C-0.0625 30.4375 -0.0625 30.4375 2 30 C3.73956658 31.73956658 3.37190386 34.1936622 3.5625 36.5625 C3.68818359 38.08037109 3.68818359 38.08037109 3.81640625 39.62890625 C3.87699219 40.41136719 3.93757813 41.19382813 4 42 C5.32 39.69 6.64 37.38 8 35 C9.485 35.495 9.485 35.495 11 36 C9.73768339 38.92042535 8.46366614 41.83560306 7.1875 44.75 C6.83107422 45.575 6.47464844 46.4 6.10742188 47.25 C5.75615234 48.04921875 5.40488281 48.8484375 5.04296875 49.671875 C4.72352295 50.4050293 4.40407715 51.13818359 4.07495117 51.89355469 C2.89363183 54.20843619 1.78268543 56.09954197 0 58 C-1.32 58 -2.64 58 -4 58 C-5.28363436 52.13525138 -4.55129978 48.29041114 -2.5625 42.6875 C-0.74105955 37.94491227 -0.74105955 37.94491227 0 33 C-0.60328125 34.07121094 -1.2065625 35.14242187 -1.828125 36.24609375 C-2.63474814 37.64361524 -3.44207668 39.04072975 -4.25 40.4375 C-4.64574219 41.14455078 -5.04148437 41.85160156 -5.44921875 42.58007812 C-5.84238281 43.25361328 -6.23554688 43.92714844 -6.640625 44.62109375 C-6.99672852 45.2442749 -7.35283203 45.86745605 -7.71972656 46.50952148 C-9.34938526 48.40675001 -10.54808731 48.71023418 -13 49 C-14 48 -14 48 -14.3125 45.4609375 C-13.89896975 40.88109 -12.14683692 37.63581357 -10 33.625 C-9.6184375 32.88894531 -9.236875 32.15289062 -8.84375 31.39453125 C-7.90668265 29.5906766 -6.95480793 27.79452741 -6 26 C-8.37258681 28.33202977 -10.6432004 30.67502271 -12.75 33.25 C-13.86375 34.61125 -13.86375 34.61125 -15 36 C-15.99 35.67 -16.98 35.34 -18 35 C-17.10887899 21.93022518 -9.13492362 9.13492362 0 0 Z " fill="#CFD442" transform="translate(23,26)"/>
<path d="M0 0 C1 2 1 2 0.5625 4.5625 C-0.39277554 10.40029498 -0.48661306 16.23937441 1 22 C1.598125 22.103125 2.19625 22.20625 2.8125 22.3125 C5.31258286 23.09824033 6.37535082 23.96918853 8 26 C8 26.66 8 27.32 8 28 C12.94868125 29.50612038 17.87191445 30.60498739 22.9609375 31.53515625 C25 32 25 32 26 33 C27.41570123 33.08651611 28.835595 33.10704904 30.25390625 33.09765625 C31.10791016 33.09443359 31.96191406 33.09121094 32.84179688 33.08789062 C33.73962891 33.07951172 34.63746094 33.07113281 35.5625 33.0625 C36.46419922 33.05798828 37.36589844 33.05347656 38.29492188 33.04882812 C40.53001314 33.03700225 42.76497437 33.0205222 45 33 C44.67 32.67 44.34 32.34 44 32 C43.63837971 30.67405895 43.30271961 29.34061543 43 28 C43.66 28 44.32 28 45 28 C45 27.34 45 26.68 45 26 C48 24 48 24 52 24 C51.505 22.02 51.505 22.02 51 20 C56.94 20 62.88 20 69 20 C69.495 22.475 69.495 22.475 70 25 C62.69209942 28.42557839 54.89657407 28.14563354 47 28 C47 28.66 47 29.32 47 30 C47.84304687 29.98839844 48.68609375 29.97679688 49.5546875 29.96484375 C50.65039062 29.95582031 51.74609375 29.94679688 52.875 29.9375 C54.51082031 29.92009766 54.51082031 29.92009766 56.1796875 29.90234375 C59 30 59 30 61 31 C60.875 32.875 60.875 32.875 60 35 C54.41353752 37.66244449 48.55313582 37.34488226 42.5 37.3125 C40.89294189 37.30512817 40.89294189 37.30512817 39.25341797 37.29760742 C26.69509859 37.11250748 13.20930446 35.79085395 3.64453125 26.78125 C-1.90078662 20.73538131 -3.27767269 16.90380154 -3.234375 8.7421875 C-2.94119165 5.31194227 -1.86490027 2.87505459 0 0 Z " fill="#EAA034" transform="translate(35,92)"/>
<path d="M0 0 C4.21322458 3.79556579 6.63003016 7.53055917 9.0625 12.625 C9.40611572 13.32923096 9.74973145 14.03346191 10.10375977 14.7590332 C15.23410677 25.4445175 20.55377658 37.40026153 17.3515625 49.4375 C14.70210072 56.14041186 10.59769539 60.27936307 4.125 63.375 C-0.74953669 64.34990734 -5.55262843 64.49810287 -10.4375 63.50390625 C-17.66318417 62.08300189 -23.52782943 62.45571612 -30 66 C-32.875 65.6875 -32.875 65.6875 -35 65 C-35.41421398 60.77501736 -35.53182404 58.70909872 -32.9375 55.25 C-29.73427072 52.79646268 -26.77022234 51.41383338 -23 50 C-21.5459375 49.4121875 -21.5459375 49.4121875 -20.0625 48.8125 C-19.381875 48.544375 -18.70125 48.27625 -18 48 C-19.2125738 44.27566618 -20.50859979 40.62197194 -22 37 C-21.01 37 -20.02 37 -19 37 C-19 37.66 -19 38.32 -19 39 C-18.34 39 -17.68 39 -17 39 C-15.00214565 43.1205746 -14.82164485 46.45194365 -15 51 C-18.63423209 53.32590854 -21.77088331 53.16265833 -26 53 C-26 53.66 -26 54.32 -26 55 C-30.47058824 59 -30.47058824 59 -33 59 C-33 60.65 -33 62.3 -33 64 C-30.525 63.505 -30.525 63.505 -28 63 C-28 62.34 -28 61.68 -28 61 C-24.49904689 59.83301563 -21.6877768 59.86731713 -18 59.875 C-16.14375 59.87113281 -16.14375 59.87113281 -14.25 59.8671875 C-11 60 -11 60 -8 61 C-2.27793707 61.47683858 2.5841011 60.84371027 8 59 C8 58.34 8 57.68 8 57 C8.78375 56.38125 9.5675 55.7625 10.375 55.125 C13.74109873 52.40006294 14.79065453 50.54695282 15.37109375 46.2578125 C15.5364142 38.45857714 14.12816657 32.41198788 11.19140625 25.19140625 C10.037901 22.10152497 9.4279948 19.26161554 9 16 C8.34 16 7.68 16 7 16 C6.02890359 14.05780718 5.05818268 12.11544495 4.08984375 10.171875 C3.15822495 8.31531568 2.20616707 6.4690365 1.25 4.625 C0 2 0 2 0 0 Z " fill="#2186AD" transform="translate(112,20)"/>
<path d="M0 0 C1.32 0 2.64 0 4 0 C4.25394531 0.51949219 4.50789063 1.03898437 4.76953125 1.57421875 C6.33132438 4.73875089 7.88376638 7.81319598 9.75 10.8125 C11 13 11 13 11 16 C11.66 16 12.32 16 13 16 C13 17.32 13 18.64 13 20 C12.2575 19.814375 11.515 19.62875 10.75 19.4375 C8.00993984 19.00158134 6.60979891 19.28005547 4 20 C3.34 19.67 2.68 19.34 2 19 C2 18.34 2 17.68 2 17 C1.38125 16.731875 0.7625 16.46375 0.125 16.1875 C-2 15 -2 15 -4 12 C-4.33 13.98 -4.66 15.96 -5 18 C-7.31 18 -9.62 18 -12 18 C-12.33 19.65 -12.66 21.3 -13 23 C-13.2475 22.46375 -13.495 21.9275 -13.75 21.375 C-15.04181958 18.81253405 -15.04181958 18.81253405 -17.125 15.875 C-19 13 -19 13 -19 11 C-17.68 10.67 -16.36 10.34 -15 10 C-14.67 11.32 -14.34 12.64 -14 14 C-12.68 14 -11.36 14 -10 14 C-9.01 14 -8.02 14 -7 14 C-7.5705109 10.00642372 -8.92869551 7.42215525 -11 4 C-11 3.01 -11 2.02 -11 1 C-10.01 1 -9.02 1 -8 1 C-7.34 2.65 -6.68 4.3 -6 6 C-5.01 6 -4.02 6 -3 6 C-3 7.32 -3 8.64 -3 10 C-0.69 10.33 1.62 10.66 4 11 C3.67 9.02 3.34 7.04 3 5 C2.34 5 1.68 5 1 5 C0.67 3.35 0.34 1.7 0 0 Z " fill="#0C9BD5" transform="translate(108,20)"/>
<path d="M0 0 C0.6875 1.8125 0.6875 1.8125 1 4 C-1.17376656 6.83730458 -3.20774422 7.55636987 -6.6328125 8.31640625 C-7.52097656 8.52330078 -8.40914062 8.73019531 -9.32421875 8.94335938 C-10.24847656 9.14767578 -11.17273438 9.35199219 -12.125 9.5625 C-13.96262645 9.97297949 -15.79868194 10.39057827 -17.6328125 10.81640625 C-18.85315186 11.08626343 -18.85315186 11.08626343 -20.09814453 11.36157227 C-22.20377344 11.81953978 -22.20377344 11.81953978 -23 14 C-25.475 13.01 -25.475 13.01 -28 12 C-26.84826645 9.53199953 -25.95216435 7.95216435 -24 6 C-25.98 5.34 -27.96 4.68 -30 4 C-29.67 2.68 -29.34 1.36 -29 0 C-27.783125 0.20625 -26.56625 0.4125 -25.3125 0.625 C-20.02097377 1.24359864 -15.25479692 0.33056218 -10.04296875 -0.5859375 C-6.3715863 -1.08550944 -3.58351551 -0.8333757 0 0 Z " fill="#F2A529" transform="translate(108,99)"/>
<path d="M0 0 C2 2 2 2 3.5625 4.875 C6.18976641 9.6582293 9.66644083 13.79077164 13.07421875 18.03515625 C15.10126388 21.15590119 15.67807636 23.32788799 16 27 C13.36 27 10.72 27 8 27 C8 26.34 8 25.68 8 25 C7.01 25 6.02 25 5 25 C6.0686745 28.30317572 7.37164842 30.53436202 9.6875 33.0625 C10.450625 34.031875 11.21375 35.00125 12 36 C11.64453125 38.18359375 11.64453125 38.18359375 11 40 C9.10278804 37.48020165 7.20748998 34.95896967 5.3125 32.4375 C4.78205078 31.73302734 4.25160156 31.02855469 3.70507812 30.30273438 C2.13043864 28.20643519 0.56444754 26.10391221 -1 24 C-1.74213745 23.01688843 -1.74213745 23.01688843 -2.49926758 22.01391602 C-5.96436632 17.3349566 -5.96436632 17.3349566 -6.3125 14.0625 C-6.209375 13.381875 -6.10625 12.70125 -6 12 C-4.68 11.34 -3.36 10.68 -2 10 C-1.08476563 10.9384375 -0.16953125 11.876875 0.7734375 12.84375 C1.97369391 14.06276041 3.17422919 15.28149629 4.375 16.5 C4.97828125 17.12003906 5.5815625 17.74007812 6.203125 18.37890625 C6.78320312 18.96542969 7.36328125 19.55195312 7.9609375 20.15625 C8.76217041 20.97319336 8.76217041 20.97319336 9.57958984 21.80664062 C10.94602023 23.21441999 10.94602023 23.21441999 13 23 C12.48050781 22.28714844 11.96101563 21.57429688 11.42578125 20.83984375 C9.98469418 18.8606798 8.54734673 16.87878882 7.11328125 14.89453125 C5.88267042 13.20898111 4.63717155 11.53375252 3.35546875 9.88671875 C1.30049705 7.21584775 0.04889732 5.45963481 -0.3125 2.0625 C-0.209375 1.381875 -0.10625 0.70125 0 0 Z " fill="#2887A5" transform="translate(78,16)"/>
<path d="M0 0 C2.94872143 2.74939062 4.21519601 5.86275308 5.67578125 9.5625 C6.36027344 11.10357422 6.36027344 11.10357422 7.05859375 12.67578125 C9.7518408 18.820211 9.7518408 18.820211 10.67578125 21.5625 C10.34578125 22.2225 10.01578125 22.8825 9.67578125 23.5625 C5.67578125 17.9375 5.67578125 17.9375 5.67578125 14.5625 C4.35578125 14.5625 3.03578125 14.5625 1.67578125 14.5625 C1.67578125 13.5725 1.67578125 12.5825 1.67578125 11.5625 C1.01578125 11.2325 0.35578125 10.9025 -0.32421875 10.5625 C-0.81921875 9.0775 -0.81921875 9.0775 -1.32421875 7.5625 C-1.98421875 7.2325 -2.64421875 6.9025 -3.32421875 6.5625 C-3.32421875 5.2425 -3.32421875 3.9225 -3.32421875 2.5625 C-4.12859375 2.583125 -4.93296875 2.60375 -5.76171875 2.625 C-8.32421875 2.5625 -8.32421875 2.5625 -9.32421875 1.5625 C-15.84585725 1.12018067 -22.25115304 0.97821672 -28.32421875 3.5625 C-29.35567246 4.87165279 -30.35964041 6.20332143 -31.32421875 7.5625 C-34.01171875 8.3125 -34.01171875 8.3125 -36.32421875 8.5625 C-31.76067096 2.35249575 -26.43679439 -2.11500409 -18.84765625 -4.078125 C-11.97597124 -5.05675506 -5.71127806 -4.02879735 0 0 Z " fill="#D1D64C" transform="translate(60.32421875,17.4375)"/>
<path d="M0 0 C2.8125 -0.25 2.8125 -0.25 6 0 C8.42386068 2.32263216 8.96779065 3.69976284 9.328125 7.05859375 C9.30234375 8.17363281 9.2765625 9.28867188 9.25 10.4375 C9.23453125 11.54996094 9.2190625 12.66242188 9.203125 13.80859375 C9.02299301 16.63874445 8.63918668 19.24221877 8 22 C18.0411439 24.91605823 29.73305221 22.5249019 39.94335938 21.53515625 C41.05388672 21.43847656 42.16441406 21.34179688 43.30859375 21.2421875 C44.80604126 21.10079346 44.80604126 21.10079346 46.33374023 20.95654297 C49.15335734 21.00249955 50.62566459 21.53415195 53 23 C52.67 24.32 52.34 25.64 52 27 C51.505 25.515 51.505 25.515 51 24 C44.31919369 23.73512222 37.86928362 24.18147508 31.25 25 C23.16209135 25.98570587 15.14909108 26.49845081 7 26 C6 25 6 25 5.88647461 23.05053711 C5.89171143 22.2178833 5.89694824 21.38522949 5.90234375 20.52734375 C5.90556641 19.62822266 5.90878906 18.72910156 5.91210938 17.80273438 C5.92048828 16.85720703 5.92886719 15.91167969 5.9375 14.9375 C5.94201172 13.98810547 5.94652344 13.03871094 5.95117188 12.06054688 C5.9629989 9.70696935 5.97947975 7.35351523 6 5 C4.68 5 3.36 5 2 5 C1.731875 6.216875 1.46375 7.43375 1.1875 8.6875 C0.3042542 12.21421906 -0.79141722 15.05522296 -3 18 C-3.66 18 -4.32 18 -5 18 C-5.226875 18.5775 -5.45375 19.155 -5.6875 19.75 C-7.33038023 22.5663661 -9.39533227 24.08077114 -12 26 C-10.62949185 23.04154732 -9.02177157 20.61498661 -7 18.0625 C-2.70999282 12.3980245 -1.40668505 6.86881316 0 0 Z " fill="#DDA743" transform="translate(48,66)"/>
<path d="M0 0 C0.495 2.475 0.495 2.475 1 5 C-1.60101286 5.86500888 -4.20506411 6.71726928 -6.8125 7.5625 C-7.91948242 7.9327832 -7.91948242 7.9327832 -9.04882812 8.31054688 C-14.66015625 10.11328125 -14.66015625 10.11328125 -18 9 C-18 7.68 -18 6.36 -18 5 C-18.82757813 5.18433594 -19.65515625 5.36867188 -20.5078125 5.55859375 C-24.4517907 6.05710554 -27.98370817 5.66957169 -31.875 5.0625 C-32.90753906 4.91264648 -32.90753906 4.91264648 -33.9609375 4.75976562 C-35.64182997 4.51463547 -37.32110487 4.25845587 -39 4 C-39 3.67 -39 3.34 -39 3 C-34.56358709 2.4900363 -30.12573006 1.99387823 -25.6875 1.5 C-24.44419922 1.35691406 -23.20089844 1.21382813 -21.91992188 1.06640625 C-14.57633755 0.25687727 -7.38785311 -0.20614601 0 0 Z " fill="#E7A42E" transform="translate(99,89)"/>
<path d="M0 0 C2.82588048 0.50720932 3.759269 1.14097336 5.4375 3.4375 C5.4375 4.0975 5.4375 4.7575 5.4375 5.4375 C6.4275 5.7675 7.4175 6.0975 8.4375 6.4375 C8.4375 7.0975 8.4375 7.7575 8.4375 8.4375 C9.0975 8.4375 9.7575 8.4375 10.4375 8.4375 C10.4375 9.0975 10.4375 9.7575 10.4375 10.4375 C13.4075 10.7675 16.3775 11.0975 19.4375 11.4375 C18.36393531 7.14324125 17.9290227 6.69009529 14.4375 4.4375 C14.7675 3.1175 15.0975 1.7975 15.4375 0.4375 C16.015 1.035625 16.5925 1.63375 17.1875 2.25 C19.31581903 4.46611368 19.31581903 4.46611368 21.6875 5.875 C23.4375 7.4375 23.4375 7.4375 23.6875 10.125 C23.605 10.888125 23.5225 11.65125 23.4375 12.4375 C20.19395059 14.73501416 17.3284734 14.6484623 13.46875 14.05078125 C8.86420488 12.66056282 6.05787759 9.36806638 3.4375 5.4375 C1.37824861 4.71367533 1.37824861 4.71367533 -0.5625 4.4375 C-0.81773438 4.95828125 -1.07296875 5.4790625 -1.3359375 6.015625 C-2.89938094 9.10267892 -4.54331695 12.14271658 -6.1875 15.1875 C-6.51234375 15.78949219 -6.8371875 16.39148438 -7.171875 17.01171875 C-7.96820585 18.48727297 -8.76527839 19.96242686 -9.5625 21.4375 C-9.8925 21.4375 -10.2225 21.4375 -10.5625 21.4375 C-10.8817654 16.11640994 -10.13651695 13.07073051 -7.5625 8.4375 C-7.3459375 7.385625 -7.3459375 7.385625 -7.125 6.3125 C-6.00882703 2.59192343 -3.77842828 0.64509751 0 0 Z " fill="#D2D54A" transform="translate(56.5625,40.5625)"/>
<path d="M0 0 C1.32 0.33 2.64 0.66 4 1 C4 7.6 4 14.2 4 21 C3.01 20.67 2.02 20.34 1 20 C0.5359375 19.01 0.5359375 19.01 0.0625 18 C-0.82027141 15.79394438 -0.82027141 15.79394438 -3.125 15.25 C-3.74375 15.1675 -4.3625 15.085 -5 15 C-5.66 16.98 -6.32 18.96 -7 21 C-7.99 21 -8.98 21 -10 21 C-12.88380405 23.92509957 -13.48304555 26.41145492 -13.8125 30.4375 C-13.90144531 31.36433594 -13.99039063 32.29117188 -14.08203125 33.24609375 C-13.99194328 36.27047571 -13.1913302 38.24476143 -12 41 C-12 41.99 -12 42.98 -12 44 C-12.66 44 -13.32 44 -14 44 C-17.16890215 37.86025208 -16.70521744 30.53644577 -14.90234375 23.99609375 C-13.12861402 20.07238859 -10.20387543 16.84117255 -7 14 C-6.34 14 -5.68 14 -5 14 C-3.07794619 9.41664092 -1.54269924 4.72065967 0 0 Z " fill="#F6A51F" transform="translate(50,70)"/>
<path d="M0 0 C0.33 0.99 0.66 1.98 1 3 C0.05126676 4.73389179 -0.90613753 6.46478249 -1.94140625 8.1484375 C-3.3700915 10.64731871 -4.19405339 13.2463491 -5 16 C-5.66 16 -6.32 16 -7 16 C-7.34900558 19.71736641 -7.34900558 19.71736641 -5.5 22.8125 C-5.005 23.204375 -4.51 23.59625 -4 24 C-4.33 24.66 -4.66 25.32 -5 26 C-7.475 25.01 -7.475 25.01 -10 24 C-10.4021875 25.299375 -10.4021875 25.299375 -10.8125 26.625 C-11.97111987 29.91791964 -13.38209839 32.91127875 -15 36 C-15.99 35.67 -16.98 35.34 -18 35 C-17.10887899 21.93022518 -9.13492362 9.13492362 0 0 Z " fill="#D5D93C" transform="translate(23,26)"/>
<path d="M0 0 C4.21322458 3.79556579 6.63003016 7.53055917 9.0625 12.625 C9.40611572 13.32923096 9.74973145 14.03346191 10.10375977 14.7590332 C15.23410677 25.4445175 20.55377658 37.40026153 17.3515625 49.4375 C15.20532285 54.86730288 12.16190067 59.10267511 7 62 C3.5625 62.375 3.5625 62.375 1 62 C3.33214148 60.79371992 5.49642139 59.8345262 8 59 C8 58.34 8 57.68 8 57 C9.175625 56.071875 9.175625 56.071875 10.375 55.125 C13.74109873 52.40006294 14.79065453 50.54695282 15.37109375 46.2578125 C15.5364142 38.45857714 14.12816657 32.41198788 11.19140625 25.19140625 C10.037901 22.10152497 9.4279948 19.26161554 9 16 C8.34 16 7.68 16 7 16 C6.02890359 14.05780718 5.05818268 12.11544495 4.08984375 10.171875 C3.15822495 8.31531568 2.20616707 6.4690365 1.25 4.625 C0 2 0 2 0 0 Z " fill="#257DA1" transform="translate(112,20)"/>
<path d="M0 0 C0.66 0 1.32 0 2 0 C2.10349817 6.41688675 1.74507544 12.62694402 1 19 C1.99 19 2.98 19 4 19 C4 18.01 4 17.02 4 16 C4.66 16 5.32 16 6 16 C6 13.69 6 11.38 6 9 C6.66 9 7.32 9 8 9 C8.12375 8.360625 8.2475 7.72125 8.375 7.0625 C8.58125 6.381875 8.7875 5.70125 9 5 C9.66 4.67 10.32 4.34 11 4 C9.09718835 11.69470323 6.00712657 18.17880719 2 25 C0.35 25 -1.3 25 -3 25 C-3.95702402 21.96348495 -3.99767829 20.02897778 -3.1875 16.9609375 C-2.99929687 16.21585938 -2.81109375 15.47078125 -2.6171875 14.703125 C-2.31167969 13.55070312 -2.31167969 13.55070312 -2 12.375 C-0.19940426 7.12257946 -0.19940426 7.12257946 -1 2 C-0.67 1.34 -0.34 0.68 0 0 Z " fill="#D2D351" transform="translate(35,58)"/>
<path d="M0 0 C1 2 1 2 0.5625 4.5625 C-0.39277554 10.40029498 -0.48661306 16.23937441 1 22 C1.598125 22.103125 2.19625 22.20625 2.8125 22.3125 C5.31258286 23.09824033 6.37535082 23.96918853 8 26 C8 26.66 8 27.32 8 28 C8.969375 28.2475 9.93875 28.495 10.9375 28.75 C15.49410178 30.03854722 19.71841403 31.99998479 24 34 C24 34.33 24 34.66 24 35 C14.72889806 34.48493878 7.73071548 31.28740484 1.4375 24.375 C-2.90874916 19.25044867 -3.26917355 15.30171498 -3.234375 8.7421875 C-2.94119165 5.31194227 -1.86490027 2.87505459 0 0 Z " fill="#D9A24A" transform="translate(35,92)"/>
<path d="M0 0 C0.6875 1.8125 0.6875 1.8125 1 4 C-1.35933066 7.25971127 -4.20330113 7.83804782 -8 8.75 C-9.051875 9.01296875 -10.10375 9.2759375 -11.1875 9.546875 C-14 10 -14 10 -17 9 C-13.55930376 6.70620251 -12.27709699 6 -8 6 C-7.67 5.01 -7.34 4.02 -7 3 C-11.29 2.67 -15.58 2.34 -20 2 C-20 1.67 -20 1.34 -20 1 C-6.3667426 -1.48063781 -6.3667426 -1.48063781 0 0 Z " fill="#DAA546" transform="translate(108,99)"/>
<path d="M0 0 C-2.64738916 1.4606285 -3.89448334 2 -7 2 C-6.67 3.32 -6.34 4.64 -6 6 C-3.36 6 -0.72 6 2 6 C2 6.33 2 6.66 2 7 C-2.95 7.33 -7.9 7.66 -13 8 C-13 8.66 -13 9.32 -13 10 C-14.65 10.33 -16.3 10.66 -18 11 C-18.3125 8.75 -18.3125 8.75 -18 6 C-13.89189189 2 -13.89189189 2 -11 2 C-11 1.34 -11 0.68 -11 0 C-3.57142857 -1.28571429 -3.57142857 -1.28571429 0 0 Z " fill="#0F9AD7" transform="translate(97,73)"/>
<path d="M0 0 C4.67692308 1.47692308 4.67692308 1.47692308 6.3125 4.125 C6.539375 4.74375 6.76625 5.3625 7 6 C5.68 6 4.36 6 3 6 C3.33 7.65 3.66 9.3 4 11 C4.66 11 5.32 11 6 11 C6.33 12.98 6.66 14.96 7 17 C4.69 16.67 2.38 16.34 0 16 C0 14.68 0 13.36 0 12 C-0.99 12 -1.98 12 -3 12 C-4.5625 9.1875 -4.5625 9.1875 -6 6 C-5.67 5.01 -5.34 4.02 -5 3 C-1.04 8.445 -1.04 8.445 3 14 C2.26276281 10.09809812 2.26276281 10.09809812 0.375 7.5625 C-1 5 -1 5 -0.6875 2.1875 C-0.460625 1.465625 -0.23375 0.74375 0 0 Z " fill="#2287A9" transform="translate(105,14)"/>
<path d="M0 0 C0.66 0.66 1.32 1.32 2 2 C11.68050938 5.28359966 24.0306234 2.49605656 33.94335938 1.53515625 C35.05388672 1.43847656 36.16441406 1.34179688 37.30859375 1.2421875 C38.80604126 1.10079346 38.80604126 1.10079346 40.33374023 0.95654297 C43.15335734 1.00249955 44.62566459 1.53415195 47 3 C46.67 4.32 46.34 5.64 46 7 C45.505 5.515 45.505 5.515 45 4 C38.31919369 3.73512222 31.86928362 4.18147508 25.25 5 C17.16209135 5.98570587 9.14909108 6.49845081 1 6 C0 5 0 5 -0.0625 2.4375 C-0.041875 1.633125 -0.02125 0.82875 0 0 Z " fill="#D8AC6C" transform="translate(54,86)"/>
<path d="M0 0 C1.45823212 -0.0270043 2.91660675 -0.04639787 4.375 -0.0625 C5.18710938 -0.07410156 5.99921875 -0.08570312 6.8359375 -0.09765625 C9 0 9 0 11 1 C10.875 2.875 10.875 2.875 10 5 C4.2945628 7.77535674 -1.8104006 7.25851594 -8 7.1875 C-9.06734375 7.18685547 -10.1346875 7.18621094 -11.234375 7.18554688 C-16.25584391 7.15744164 -21.06913155 7.07006694 -26 6 C-26 5.67 -26 5.34 -26 5 C-15.44 5 -4.88 5 6 5 C6 3.68 6 2.36 6 1 C4.02 1 2.04 1 0 1 C0 0.67 0 0.34 0 0 Z " fill="#D6A146" transform="translate(85,122)"/>
<path d="M0 0 C0.7425 0.598125 1.485 1.19625 2.25 1.8125 C4.85776725 3.97332259 4.85776725 3.97332259 7.3125 5.4375 C9 7 9 7 9.25 9.6875 C9.1675 10.450625 9.085 11.21375 9 12 C5.75670543 14.29733365 2.89038252 14.21416443 -0.96875 13.609375 C-5.24701683 12.32589495 -8.10148987 9.51113067 -10.375 5.6875 C-10.58125 5.130625 -10.7875 4.57375 -11 4 C-8.525 4.99 -8.525 4.99 -6 6 C-6 6.66 -6 7.32 -6 8 C-5.34 8 -4.68 8 -4 8 C-4 8.66 -4 9.32 -4 10 C-1.03 10.33 1.94 10.66 5 11 C4.45266193 6.9918272 4.45266193 6.9918272 1.9375 5.5 C1.298125 5.005 0.65875 4.51 0 4 C0 2.68 0 1.36 0 0 Z " fill="#CACC6C" transform="translate(71,41)"/>
<path d="M0 0 C2.08317351 1.88006409 2.94125505 3.69220962 3.5625 6.41015625 C1.0875 5.42015625 1.0875 5.42015625 -1.4375 4.41015625 C-1.4375 3.42015625 -1.4375 2.43015625 -1.4375 1.41015625 C-7.65692396 -1.11366797 -13.71620952 -2.91309781 -20.4375 -1.58984375 C-25.07032253 0.65594522 -28.57293595 3.11331017 -31.4375 7.41015625 C-34.0625 8.09765625 -34.0625 8.09765625 -36.4375 8.41015625 C-31.87395221 2.200152 -26.55007564 -2.26734784 -18.9609375 -4.23046875 C-11.91318471 -5.23417348 -5.86429444 -4.05534878 0 0 Z " fill="#D5D56C" transform="translate(60.4375,17.58984375)"/>
<path d="M0 0 C0.66 0.33 1.32 0.66 2 1 C2 1.66 2 2.32 2 3 C2.66 3 3.32 3 4 3 C5.99785435 7.1205746 6.17835515 10.45194365 6 15 C2.36576791 17.32590854 -0.77088331 17.16265833 -5 17 C-5 17.66 -5 18.32 -5 19 C-6.96147874 20.38938077 -8.96166576 21.7260411 -11 23 C-10.4375 20.1875 -10.4375 20.1875 -9 17 C-5.6875 15.25 -5.6875 15.25 -2 14 C-1.030625 13.608125 -0.06125 13.21625 0.9375 12.8125 C1.9584375 12.4103125 1.9584375 12.4103125 3 12 C1.7874262 8.27566618 0.49140021 4.62197194 -1 1 C-0.67 0.67 -0.34 0.34 0 0 Z " fill="#2A87A5" transform="translate(91,56)"/>
<path d="M0 0 C1.32 0 2.64 0 4 0 C4 0.66 4 1.32 4 2 C5.0828125 2.37125 5.0828125 2.37125 6.1875 2.75 C9.24713266 4.10983674 11.4673738 5.82917754 14 8 C12.02 8 10.04 8 8 8 C8 7.34 8 6.68 8 6 C7.01 6 6.02 6 5 6 C6.0686745 9.30317572 7.37164842 11.53436202 9.6875 14.0625 C10.450625 15.031875 11.21375 16.00125 12 17 C11.64453125 19.18359375 11.64453125 19.18359375 11 21 C5.46532193 14.26955815 1.03553252 8.87599304 0 0 Z " fill="#1794C9" transform="translate(78,35)"/>
<path d="M0 0 C2 2 2 2 3.5625 4.875 C6.18976641 9.6582293 9.66644083 13.79077164 13.07421875 18.03515625 C15.10126388 21.15590119 15.67807636 23.32788799 16 27 C11.1933405 26.56303095 9.16678288 25.61918044 6 22 C5.34 21.67 4.68 21.34 4 21 C4.33 19.68 4.66 18.36 5 17 C7.64 19.31 10.28 21.62 13 24 C10.66471372 19.52403463 8.09145884 15.8499804 4.8125 12 C1.41960675 7.8832056 0 5.32447235 0 0 Z " fill="#1D789C" transform="translate(78,16)"/>
<path d="M0 0 C0.66 0.33 1.32 0.66 2 1 C2 1.99 2 2.98 2 4 C1.34 4 0.68 4 0 4 C0 4.66 0 5.32 0 6 C-0.66 6 -1.32 6 -2 6 C-2.66 7.98 -3.32 9.96 -4 12 C-4.99 12 -5.98 12 -7 12 C-9.88380405 14.92509957 -10.48304555 17.41145492 -10.8125 21.4375 C-10.90144531 22.36433594 -10.99039063 23.29117188 -11.08203125 24.24609375 C-10.99194328 27.27047571 -10.1913302 29.24476143 -9 32 C-9 32.99 -9 33.98 -9 35 C-9.66 35 -10.32 35 -11 35 C-14.16890215 28.86025208 -13.70521744 21.53644577 -11.90234375 14.99609375 C-10.12861402 11.07238859 -7.20387543 7.84117255 -4 5 C-3.34 5 -2.68 5 -2 5 C-1.34 3.35 -0.68 1.7 0 0 Z " fill="#ECA42E" transform="translate(47,79)"/>
<path d="M0 0 C4.39881273 3.91432811 6.75712516 7.89014097 9.25 13.1875 C9.600625 13.91130859 9.95125 14.63511719 10.3125 15.38085938 C11.21660697 17.24992667 12.10912752 19.12458853 13 21 C13.33 21.66 13.66 22.32 14 23 C14.039992 24.99960012 14.04346799 27.00047242 14 29 C11.31342365 26.31342365 10.34023957 23.53335886 9 20 C9 18.68 9 17.36 9 16 C8.34 16 7.68 16 7 16 C6.02890359 14.05780718 5.05818268 12.11544495 4.08984375 10.171875 C3.15822495 8.31531568 2.20616707 6.4690365 1.25 4.625 C0 2 0 2 0 0 Z " fill="#2183AA" transform="translate(112,20)"/>
<path d="M0 0 C0.33 0 0.66 0 1 0 C1.33 1.98 1.66 3.96 2 6 C2.99 6 3.98 6 5 6 C5.33 5.34 5.66 4.68 6 4 C5.34 7.3 4.68 10.6 4 14 C3.34 14 2.68 14 2 14 C2 14.99 2 15.98 2 17 C1.01 17 0.02 17 -1 17 C-1.10477512 11.21408489 -0.99250545 5.70690634 0 0 Z " fill="#D3DA35" transform="translate(37,60)"/>
<path d="M0 0 C3.84280285 1.24631444 6.07319896 2.36048692 8 6 C7.6875 8.25 7.6875 8.25 7 10 C6.34 10 5.68 10 5 10 C4.67 10.66 4.34 11.32 4 12 C3.0234375 10.2421875 2.046875 8.484375 1.0703125 6.7265625 C-0.00897274 4.8387386 -0.00897274 4.8387386 -2 3 C-1.34 2.01 -0.68 1.02 0 0 Z " fill="#1A9BC6" transform="translate(92,11)"/>
<path d="M0 0 C5.28 0 10.56 0 16 0 C16 0.99 16 1.98 16 3 C13.52621876 4.23689062 11.82084683 4.13310087 9.0625 4.125 C8.18722656 4.12757812 7.31195313 4.13015625 6.41015625 4.1328125 C4 4 4 4 1 3 C0.67 2.01 0.34 1.02 0 0 Z " fill="#EEA12F" transform="translate(86,113)"/>
<path d="M0 0 C5.94 0 11.88 0 18 0 C18.33 1.65 18.66 3.3 19 5 C13.34409281 7.74225803 8.01344909 7.45780584 2 6 C2 5.67 2 5.34 2 5 C6.62 4.67 11.24 4.34 16 4 C16 3.01 16 2.02 16 1 C10.72 1 5.44 1 0 1 C0 0.67 0 0.34 0 0 Z " fill="#D39C49" transform="translate(86,112)"/>
<path d="M0 0 C4.68512228 4.50806824 8.58031781 9.95079451 11 16 C10.6875 18.375 10.6875 18.375 10 20 C9.01 20 8.02 20 7 20 C7 19.01 7 18.02 7 17 C6.34 17 5.68 17 5 17 C5 16.34 5 15.68 5 15 C5.66 15 6.32 15 7 15 C6.4946875 14.16855469 5.989375 13.33710938 5.46875 12.48046875 C4.8190625 11.39378906 4.169375 10.30710937 3.5 9.1875 C2.8503125 8.10855469 2.200625 7.02960937 1.53125 5.91796875 C0 3 0 3 0 0 Z " fill="#147FAB" transform="translate(91,15)"/>
<path d="M0 0 C0.99 0 1.98 0 3 0 C3 0.66 3 1.32 3 2 C5.64 2 8.28 2 11 2 C11 2.99 11 3.98 11 5 C8.03 4.505 8.03 4.505 5 4 C5.34786708 5.97536745 5.34786708 5.97536745 6 8 C6.66 8.33 7.32 8.66 8 9 C8.625 12.0625 8.625 12.0625 9 15 C8.01 15 7.02 15 6 15 C5.9071875 13.948125 5.9071875 13.948125 5.8125 12.875 C5.13854102 9.74144171 5.13854102 9.74144171 2.4375 6.9375 C0 4 0 4 0 0 Z " fill="#0D9AD0" transform="translate(83,41)"/>
<path d="M0 0 C2.65119268 0.11147611 4.44587816 0.50059699 6.44384766 2.30126953 C7.95899068 4.0142838 9.39567824 5.76735467 10.8125 7.5625 C11.56563477 8.48579102 11.56563477 8.48579102 12.33398438 9.42773438 C13.56716988 10.94279085 14.78511798 12.47022737 16 14 C10.92639128 14 7.68016139 9.63580303 4.125 6.3125 C2 4 2 4 2 2 C1.34 2 0.68 2 0 2 C0 1.34 0 0.68 0 0 Z " fill="#1F83A7" transform="translate(80,15)"/>
<path d="M0 0 C0.33 0.99 0.66 1.98 1 3 C-1.23522413 7.31629487 -3.54134861 11.54134861 -7 15 C-7.99 15 -8.98 15 -10 15 C-8.65794923 11.19639883 -6.95995677 8.38858921 -4.4375 5.25 C-3.81746094 4.47140625 -3.19742187 3.6928125 -2.55859375 2.890625 C-1 1 -1 1 0 0 Z " fill="#D3D854" transform="translate(23,26)"/>
<path d="M0 0 C1.22419163 3.93795909 0.48320272 6.16112237 -1 10 C-0.34 10.33 0.32 10.66 1 11 C1 10.34 1 9.68 1 9 C1.66 9 2.32 9 3 9 C2.25 11.4375 2.25 11.4375 1 14 C-1.0625 14.875 -1.0625 14.875 -3 15 C-4 14 -4 14 -4.3125 11.4375 C-3.90811269 6.98923964 -2.18195863 3.83790938 0 0 Z " fill="#C9CF63" transform="translate(13,60)"/>
<path d="M0 0 C1.98 0 3.96 0 6 0 C7.1875 1.625 7.1875 1.625 8 4 C6.625 7.25 6.625 7.25 5 10 C4.34 10 3.68 10 3 10 C4.875 4.25 4.875 4.25 6 2 C5.4225 2.5775 4.845 3.155 4.25 3.75 C2.16666667 5.83333333 0.08333333 7.91666667 -2 10 C-2.33 9.34 -2.66 8.68 -3 8 C-2.34 8 -1.68 8 -1 8 C-0.67 5.36 -0.34 2.72 0 0 Z " fill="#CBCB49" transform="translate(11,50)"/>
<path d="M0 0 C0.99 0.495 0.99 0.495 2 1 C2 1.66 2 2.32 2 3 C2.969375 3.2475 3.93875 3.495 4.9375 3.75 C9.49410178 5.03854722 13.71841403 6.99998479 18 9 C18 9.33 18 9.66 18 10 C11.03949747 9.61330541 6.0605925 7.36561591 0 4 C0 2.68 0 1.36 0 0 Z " fill="#DCA746" transform="translate(41,117)"/>
<path d="M0 0 C0 0.33 0 0.66 0 1 C-9.40060944 3.27309819 -17.32540417 4.49532859 -27 3 C-27 2.67 -27 2.34 -27 2 C-17.96301675 0.8258212 -9.13338455 -0.28994872 0 0 Z " fill="#EAA540" transform="translate(87,90)"/>
<path d="M0 0 C3.01768138 4.52652207 3.17560099 8.09367198 3.25 13.5 C3.27578125 14.6240625 3.3015625 15.748125 3.328125 16.90625 C3 20 3 20 0 24 C0 16.08 0 8.16 0 0 Z " fill="#0F90C7" transform="translate(125,49)"/>
<path d="M0 0 C7.05423432 0.15900938 12.62963254 1.15324337 18 6 C19.5 8.8125 19.5 8.8125 20 11 C18.35 10.34 16.7 9.68 15 9 C15 8.01 15 7.02 15 6 C14.41992188 5.80664062 13.83984375 5.61328125 13.2421875 5.4140625 C8.828125 3.94270833 4.4140625 2.47135417 0 1 C0 0.67 0 0.34 0 0 Z " fill="#DADD86" transform="translate(44,13)"/>
<path d="M0 0 C0.66 0.33 1.32 0.66 2 1 C1.01 3.97 0.02 6.94 -1 10 C-0.2575 9.649375 0.485 9.29875 1.25 8.9375 C4.1322726 7.95490707 5.21176345 7.9673198 8 9 C2.70769231 12.07692308 2.70769231 12.07692308 -0.875 11.6875 C-1.57625 11.460625 -2.2775 11.23375 -3 11 C-3.36923077 4.6 -3.36923077 4.6 -1.5 1.5625 C-1.005 1.046875 -0.51 0.53125 0 0 Z " fill="#33819C" transform="translate(80,74)"/>
<path d="M0 0 C2.33294775 -0.04241723 4.66702567 -0.04092937 7 0 C7.33 0.33 7.66 0.66 8 1 C9.39174359 1.09862603 10.78836143 1.1307898 12.18359375 1.1328125 C13.02857422 1.13410156 13.87355469 1.13539062 14.74414062 1.13671875 C15.63294922 1.13285156 16.52175781 1.12898438 17.4375 1.125 C18.32244141 1.12886719 19.20738281 1.13273437 20.11914062 1.13671875 C21.38854492 1.13478516 21.38854492 1.13478516 22.68359375 1.1328125 C23.46275146 1.13168457 24.24190918 1.13055664 25.04467773 1.12939453 C27.07974488 1.12145153 27.07974488 1.12145153 29 0 C29.33 0.99 29.66 1.98 30 3 C26.12506384 3.05834395 22.25024164 3.09371201 18.375 3.125 C17.28058594 3.14175781 16.18617187 3.15851563 15.05859375 3.17578125 C5.01920021 3.23662606 5.01920021 3.23662606 0 1 C0 0.67 0 0.34 0 0 Z " fill="#F1A527" transform="translate(53,124)"/>
<path d="M0 0 C0.33 0 0.66 0 1 0 C1 2.31 1 4.62 1 7 C-2.63423209 9.32590854 -5.77088331 9.16265833 -10 9 C-10 9.66 -10 10.32 -10 11 C-11.96147874 12.38938077 -13.96166576 13.7260411 -16 15 C-14.125 9.125 -14.125 9.125 -13 8 C-10.98405418 7.76572222 -8.961526 7.58663876 -6.9375 7.4375 C-5.83277344 7.35371094 -4.72804688 7.26992187 -3.58984375 7.18359375 C-2.30787109 7.09271484 -2.30787109 7.09271484 -1 7 C-0.67 4.69 -0.34 2.38 0 0 Z " fill="#1C92B8" transform="translate(96,64)"/>
<path d="M0 0 C0.33 0 0.66 0 1 0 C1.02708567 1.60407328 1.04643483 3.2082785 1.0625 4.8125 C1.07410156 5.70582031 1.08570313 6.59914063 1.09765625 7.51953125 C1 10 1 10 0 13 C1.32 13.33 2.64 13.66 4 14 C3 15 3 15 0.4375 15.0625 C-0.366875 15.041875 -1.17125 15.02125 -2 15 C-3.31534494 11.34142468 -2.65468309 8.91973519 -1.5625 5.25 C-1.27503906 4.26515625 -0.98757812 3.2803125 -0.69140625 2.265625 C-0.46324219 1.51796875 -0.23507813 0.7703125 0 0 Z " fill="#CDCF61" transform="translate(34,68)"/>
<path d="M0 0 C0.66 0.33 1.32 0.66 2 1 C0.19587357 4.26460973 -0.83394693 5.88929795 -4 8 C-4.99 8 -5.98 8 -7 8 C-7.0825 8.61875 -7.165 9.2375 -7.25 9.875 C-8 12 -8 12 -10.0625 13.25 C-10.701875 13.4975 -11.34125 13.745 -12 14 C-10.8125 10.5625 -10.8125 10.5625 -9 7 C-6.4375 6.3125 -6.4375 6.3125 -4 6 C-2.75825204 4.0998823 -2.75825204 4.0998823 -2 2 C-1.34 1.34 -0.68 0.68 0 0 Z " fill="#D3D93A" transform="translate(33,19)"/>
<path d="M0 0 C5.75956567 4.16649431 5.75956567 4.16649431 6.9375 8.25 C6.958125 9.1575 6.97875 10.065 7 11 C6 12 6 12 4.15234375 12.09765625 C2.1015625 12.06510417 0.05078125 12.03255208 -2 12 C-2.33 11.34 -2.66 10.68 -3 10 C-0.36 10.33 2.28 10.66 5 11 C4.79623822 9.09415804 4.79623822 9.09415804 4 7 C3.319375 6.505 2.63875 6.01 1.9375 5.5 C1.298125 5.005 0.65875 4.51 0 4 C0 2.68 0 1.36 0 0 Z " fill="#CDD14E" transform="translate(71,41)"/>
<path d="M0 0 C-2.05233685 2.2477975 -3.00667261 3.0022242 -6 4 C-6.33 4.66 -6.66 5.32 -7 6 C-9.475 5.01 -9.475 5.01 -12 4 C-10 1 -10 1 -8.25 0.3125 C-5.48083033 -0.0721069 -2.79197653 -0.06345401 0 0 Z " fill="#E39B2E" transform="translate(92,107)"/>
<path d="M0 0 C2.046875 3.734375 2.046875 3.734375 1.625 6.125 C1.41875 6.74375 1.2125 7.3625 1 8 C1 8.66 1 9.32 1 10 C0.38125 10.28875 -0.2375 10.5775 -0.875 10.875 C-3.13325765 11.93720042 -3.13325765 11.93720042 -5 14 C-5.33 12.68 -5.66 11.36 -6 10 C-5.01 9.67 -4.02 9.34 -3 9 C-1.97718482 6.90280128 -1.97718482 6.90280128 -1.3125 4.4375 C-1.06113281 3.61121094 -0.80976563 2.78492187 -0.55078125 1.93359375 C-0.36902344 1.29550781 -0.18726563 0.65742187 0 0 Z " fill="#D2DF3A" transform="translate(24,67)"/>
<path d="M0 0 C0.66 0.99 1.32 1.98 2 3 C2.99 4.3921875 2.99 4.3921875 4 5.8125 C5.91122519 8.85851515 7.01680935 11.55883271 8 15 C7.01 14.67 6.02 14.34 5 14 C4.3125 11.9375 4.3125 11.9375 4 10 C2.35 9.67 0.7 9.34 -1 9 C-1.125 2.25 -1.125 2.25 0 0 Z " fill="#D3D83B" transform="translate(65,32)"/>
<path d="M0 0 C0.52078125 0.15339844 1.0415625 0.30679688 1.578125 0.46484375 C4.63278515 1.13982511 7.63015971 1.34411118 10.75 1.5625 C11.92046875 1.64628906 13.0909375 1.73007813 14.296875 1.81640625 C15.18890625 1.87699219 16.0809375 1.93757813 17 2 C17 2.33 17 2.66 17 3 C11.33357449 4.22517308 5.76291482 4.09228867 0 4 C0 2.68 0 1.36 0 0 Z " fill="#E4A13B" transform="translate(78,99)"/>
<path d="M0 0 C0.66 0 1.32 0 2 0 C2.02703381 1.93742341 2.04641125 3.87495479 2.0625 5.8125 C2.07410156 6.89144531 2.08570313 7.97039062 2.09765625 9.08203125 C2 12 2 12 1 15 C0.34 15 -0.32 15 -1 15 C-0.67 10.05 -0.34 5.1 0 0 Z " fill="#C69A3F" transform="translate(55,71)"/>
<path d="M0 0 C3.54957284 1.18319095 4.45618788 2.41679917 6.75 5.3125 C7.70132813 6.48232422 7.70132813 6.48232422 8.671875 7.67578125 C10 10 10 10 9.703125 12.29296875 C9.35507813 13.13794922 9.35507813 13.13794922 9 14 C7.49412261 12.04594482 5.99521356 10.08718716 4.5 8.125 C4.07074219 7.56941406 3.64148438 7.01382813 3.19921875 6.44140625 C0 2.2265625 0 2.2265625 0 0 Z " fill="#237F99" transform="translate(80,42)"/>
<path d="M0 0 C2.8125 -0.3125 2.8125 -0.3125 6 0 C7.875 2.5 7.875 2.5 9 5 C7.68 4.67 6.36 4.34 5 4 C5 3.34 5 2.68 5 2 C3.68 2.33 2.36 2.66 1 3 C0.67 4.65 0.34 6.3 0 8 C-0.33 8 -0.66 8 -1 8 C-1.125 2.25 -1.125 2.25 0 0 Z " fill="#D9B973" transform="translate(48,66)"/>
<path d="M0 0 C1.11003253 3.3300976 0.9343162 3.97843441 -0.25 7.125 C-0.62898437 8.18074219 -0.62898437 8.18074219 -1.015625 9.2578125 C-2 11 -2 11 -5 12 C-4.54738642 10.56068883 -4.08767021 9.12361001 -3.625 7.6875 C-3.24214844 6.48673828 -3.24214844 6.48673828 -2.8515625 5.26171875 C-2 3 -2 3 0 0 Z " fill="#D2D565" transform="translate(12,41)"/>
<path d="M0 0 C1.32 0 2.64 0 4 0 C4.66 1.65 5.32 3.3 6 5 C5.01 5.99 4.02 6.98 3 8 C3 7.01 3 6.02 3 5 C2.34 5 1.68 5 1 5 C0.67 3.35 0.34 1.7 0 0 Z " fill="#1792C4" transform="translate(108,20)"/>
<path d="M0 0 C4.67692308 1.47692308 4.67692308 1.47692308 6.3125 4.125 C6.539375 4.74375 6.76625 5.3625 7 6 C5.35 6 3.7 6 2 6 C1.67 5.34 1.34 4.68 1 4 C0.01 4.495 0.01 4.495 -1 5 C-0.67 3.35 -0.34 1.7 0 0 Z " fill="#3D98AB" transform="translate(105,14)"/>
<path d="M0 0 C-2.61331914 1.41554787 -5.30718129 2.58131312 -8.0625 3.6875 C-8.73410156 3.95949219 -9.40570313 4.23148437 -10.09765625 4.51171875 C-12 5 -12 5 -15 4 C-9.96174932 0.68914955 -5.9781891 -0.1708054 0 0 Z " fill="#DC9941" transform="translate(96,94)"/>
<path d="M0 0 C1.65 0 3.3 0 5 0 C4.67 0.66 4.34 1.32 4 2 C3.01 2 2.02 2 1 2 C0.566875 3.423125 0.566875 3.423125 0.125 4.875 C-1 8 -1 8 -3 10 C-3.33 9.01 -3.66 8.02 -4 7 C-3.34 7 -2.68 7 -2 7 C-1.855625 6.21625 -1.71125 5.4325 -1.5625 4.625 C-1 2 -1 2 0 0 Z " fill="#D5DA33" transform="translate(30,59)"/>
<path d="M0 0 C0.99 0.33 1.98 0.66 3 1 C2.625 3.4375 2.625 3.4375 2 6 C1.01 6.495 1.01 6.495 0 7 C-0.99 6.34 -1.98 5.68 -3 5 C-2.01 3.35 -1.02 1.7 0 0 Z " fill="#ECA11D" transform="translate(79,93)"/>
<path d="M0 0 C1.8258428 1.8258428 2.82300078 3.2754995 4.0625 5.5 C4.40410156 6.1084375 4.74570313 6.716875 5.09765625 7.34375 C5.7549272 8.5501694 6.38559738 9.77119477 7 11 C5.1875 10.8125 5.1875 10.8125 3 10 C0.37665094 6.62712264 -0.36372697 4.24348127 0 0 Z " fill="#2B82A1" transform="translate(78,16)"/>
<path d="M0 0 C0.99 0.33 1.98 0.66 3 1 C1.02 5.455 1.02 5.455 -1 10 C-1.66 8.68 -2.32 7.36 -3 6 C-1.625 2.75 -1.625 2.75 0 0 Z " fill="#CECC46" transform="translate(31,61)"/>
<path d="M0 0 C2.97 0.33 5.94 0.66 9 1 C8.67 1.66 8.34 2.32 8 3 C5.36 3 2.72 3 0 3 C0 2.01 0 1.02 0 0 Z " fill="#E8A448" transform="translate(84,117)"/>
<path d="M0 0 C0.33 0 0.66 0 1 0 C0.63076923 7.26153846 0.63076923 7.26153846 -2.5625 11 C-3.366875 11.66 -4.17125 12.32 -5 13 C-4.3506938 9.49374651 -2.82074633 7.03457721 -1 4 C-0.30420546 1.80869466 -0.30420546 1.80869466 0 0 Z " fill="#1D7292" transform="translate(128,65)"/>
<path d="M0 0 C2.475 0.99 2.475 0.99 5 2 C5 2.66 5 3.32 5 4 C5.66 4 6.32 4 7 4 C7.33 4.99 7.66 5.98 8 7 C6.25 6.875 6.25 6.875 4 6 C1.75 2.9375 1.75 2.9375 0 0 Z " fill="#CECE5F" transform="translate(60,45)"/>
<path d="M0 0 C3.65316671 1.24976756 4.78065836 1.67098753 7 5 C6.01 5.33 5.02 5.66 4 6 C4 5.34 4 4.68 4 4 C2.35 3.67 0.7 3.34 -1 3 C-0.67 2.01 -0.34 1.02 0 0 Z " fill="#3F87A0" transform="translate(92,11)"/>
<path d="M0 0 C0 0.99 0 1.98 0 3 C-1.98 3.33 -3.96 3.66 -6 4 C-6.33 3.01 -6.66 2.02 -7 1 C-4.53721199 -0.231394 -2.7204945 -0.07159196 0 0 Z " fill="#F9A32C" transform="translate(92,90)"/>
<path d="M0 0 C2.5 1.375 2.5 1.375 5 3 C5 3.66 5 4.32 5 5 C5.66 5.33 6.32 5.66 7 6 C5.00045254 6.04254356 2.99958364 6.04080783 1 6 C0 5 0 5 -0.0625 2.4375 C-0.041875 1.633125 -0.02125 0.82875 0 0 Z " fill="#DAA852" transform="translate(54,86)"/>
<path d="M0 0 C0 2.64 0 5.28 0 8 C-0.99 7.67 -1.98 7.34 -3 7 C-3.875 5.125 -3.875 5.125 -4 3 C-1.64285714 0 -1.64285714 0 0 0 Z " fill="#EBA42F" transform="translate(54,83)"/>
<path d="M0 0 C0.33 0.66 0.66 1.32 1 2 C0.06421005 4.35981813 -0.93347808 6.69631264 -2 9 C-2.99 9 -3.98 9 -5 9 C-3.7508258 5.54074837 -2.32472205 2.85306797 0 0 Z " fill="#D4D569" transform="translate(18,32)"/>
<path d="M0 0 C2.31 0 4.62 0 7 0 C6.34 1.65 5.68 3.3 5 5 C4.01 4.67 3.02 4.34 2 4 C2 3.34 2 2.68 2 2 C1.34 2 0.68 2 0 2 C0 1.34 0 0.68 0 0 Z " fill="#1599C9" transform="translate(106,30)"/>
<path d="M0 0 C2.375 0.25 2.375 0.25 5 1 C6.3125 3.0625 6.3125 3.0625 7 5 C5.35 4.67 3.7 4.34 2 4 C2 3.34 2 2.68 2 2 C1.34 2 0.68 2 0 2 C0 1.34 0 0.68 0 0 Z " fill="#3B879F" transform="translate(80,15)"/>
<path d="M0 0 C1.32 0 2.64 0 4 0 C4 1.98 4 3.96 4 6 C3.01 5.67 2.02 5.34 1 5 C0.67 3.35 0.34 1.7 0 0 Z " fill="#0C9CD7" transform="translate(78,35)"/>
<path d="M0 0 C0.33 0.66 0.66 1.32 1 2 C1.66 2 2.32 2 3 2 C3 2.66 3 3.32 3 4 C4.32 4.66 5.64 5.32 7 6 C3.25 7.125 3.25 7.125 1 6 C0.375 2.9375 0.375 2.9375 0 0 Z " fill="#279BC0" transform="translate(79,15)"/>
<path d="M0 0 C0.99 0.495 0.99 0.495 2 1 C2 1.66 2 2.32 2 3 C4.31 3.66 6.62 4.32 9 5 C5.79937313 6.60031344 3.27728194 5.03173691 0 4 C0 2.68 0 1.36 0 0 Z " fill="#DEA533" transform="translate(41,117)"/>
<path d="M0 0 C1.98 0 3.96 0 6 0 C6 0.99 6 1.98 6 3 C4.02 3 2.04 3 0 3 C0 2.01 0 1.02 0 0 Z " fill="#E7A81A" transform="translate(92,90)"/>
<path d="M0 0 C0.66 0 1.32 0 2 0 C2 2.97 2 5.94 2 9 C1.01 9.495 1.01 9.495 0 10 C0.020625 9.05125 0.04125 8.1025 0.0625 7.125 C0.22551826 4.09333717 0.22551826 4.09333717 -1 2 C-0.67 1.34 -0.34 0.68 0 0 Z " fill="#D3D655" transform="translate(35,58)"/>
<path d="M0 0 C0.99 0.33 1.98 0.66 3 1 C2.25 2.9375 2.25 2.9375 1 5 C-1.125 5.75 -1.125 5.75 -3 6 C-2.67 4.68 -2.34 3.36 -2 2 C-1.34 2 -0.68 2 0 2 C0 1.34 0 0.68 0 0 Z " fill="#D3DC2E" transform="translate(17,60)"/>
<path d="M0 0 C2.475 0.495 2.475 0.495 5 1 C4.67 2.32 4.34 3.64 4 5 C2.68 4.34 1.36 3.68 0 3 C0 2.01 0 1.02 0 0 Z " fill="#139CD5" transform="translate(82,21)"/>
<path d="M0 0 C6.4 -0.36923077 6.4 -0.36923077 9.4375 1.5 C9.953125 1.995 10.46875 2.49 11 3 C9.741875 2.87625 8.48375 2.7525 7.1875 2.625 C6.12595703 2.52058594 6.12595703 2.52058594 5.04296875 2.4140625 C3 2 3 2 0 0 Z " fill="#E99C28" transform="translate(53,124)"/>
<path d="M0 0 C2.31 0.33 4.62 0.66 7 1 C7 1.99 7 2.98 7 4 C4.03 3.505 4.03 3.505 1 3 C0.67 2.01 0.34 1.02 0 0 Z " fill="#E8A728" transform="translate(86,113)"/>
<path d="M0 0 C0 0.33 0 0.66 0 1 C-3.96 1.66 -7.92 2.32 -12 3 C-9.42852703 -2.14294593 -4.93360395 -0.94876999 0 0 Z " fill="#D3A44B" transform="translate(103,106)"/>
<path d="M0 0 C0.66 0 1.32 0 2 0 C1.67 1.32 1.34 2.64 1 4 C-0.32 4.33 -1.64 4.66 -3 5 C-3.33 3.68 -3.66 2.36 -4 1 C-2.68 1.33 -1.36 1.66 0 2 C0 1.34 0 0.68 0 0 Z " fill="#CBD24E" transform="translate(14,69)"/>
<path d="M0 0 C0.33 0 0.66 0 1 0 C1 1.65 1 3.3 1 5 C1.66 5 2.32 5 3 5 C2.67 5.99 2.34 6.98 2 8 C1.01 7.67 0.02 7.34 -1 7 C-0.67 4.69 -0.34 2.38 0 0 Z " fill="#D5D96B" transform="translate(6,54)"/>
<path d="M0 0 C1.61949011 2.57213134 2.04408751 3.67669159 1.625 6.75 C1.41875 7.4925 1.2125 8.235 1 9 C0.34 8.67 -0.32 8.34 -1 8 C-1.125 2.25 -1.125 2.25 0 0 Z " fill="#1E9ABD" transform="translate(75,26)"/>
<path d="M0 0 C2.0245738 1.93254772 3.42105792 3.63158688 5 6 C4.67 6.99 4.34 7.98 4 9 C0 3.375 0 3.375 0 0 Z " fill="#26849B" transform="translate(91,15)"/>
</svg>
